<?xml version="1.0" standalone="no"?><!DOCTYPE svg PUBLIC "-//W3C//DTD SVG 1.1//EN" "http://www.w3.org/Graphics/SVG/1.1/DTD/svg11.dtd"><svg t="1686033399616" class="icon" viewBox="0 0 1024 1024" version="1.1" xmlns="http://www.w3.org/2000/svg" p-id="25884" xmlns:xlink="http://www.w3.org/1999/xlink" width="200" height="200"><path d="M128 128m85.333333 0l597.333334 0q85.333333 0 85.333333 85.333333l0 597.333334q0 85.333333-85.333333 85.333333l-597.333334 0q-85.333333 0-85.333333-85.333333l0-597.333334q0-85.333333 85.333333-85.333333Z" fill="#DBDDE1" p-id="25885"></path><path d="M277.333333 896c8.789333-107.349333 115.477333-192 245.333334-192s236.544 84.650667 245.333333 192H277.333333z" fill="#3F495C" p-id="25886"></path><path d="M374.528 457.472A137.344 137.344 0 0 1 512 320a137.344 137.344 0 0 1 137.472 137.472c0 76.032-61.44 137.856-137.472 137.856s-137.472-61.824-137.472-137.856z" fill="#3F495C" p-id="25887"></path></svg>